<svg xmlns="http://www.w3.org/2000/svg">

  <symbol id="logo-darkbackground" viewBox="0 0 90 41">
    <path d="m63.61 30.537 1.865 5.066 1.828-5.066h1.484L65.696 38.7c-.45 1.189-1.139 1.723-2.264 1.723-.117 0-.239-.006-.366-.018l-.076-.007-.122-.013v-1.282l.146.011.075.005c.725.039 1.04-.173 1.304-.868l.349-.924-2.63-6.79h1.498zm23.214-.169c1.612 0 2.71.831 2.878 2.172l.004.04.017.151h-1.387l-.024-.106c-.135-.618-.678-.972-1.488-.972-.782 0-1.395.351-1.395.8l.001.036c.018.321.28.48 1.537.68l.278.044c1.217.197 2.606.512 2.606 2.138 0 1.387-1.164 2.319-2.897 2.319-1.703 0-2.93-.926-3.138-2.362l-.006-.044-.02-.153h1.394l.02.111c.13.699.816 1.15 1.75 1.15 1.003 0 1.535-.466 1.55-.934l.001-.041c0-.306-.033-.647-1.612-.873l-.1-.013c-1.697-.243-2.748-.665-2.748-2.02 0-1.022.87-2.123 2.779-2.123zm-31.367 0c1.772 0 2.836.811 2.857 2.173V36.273c0 .3.079.75.174 1.008l.013.034.075.186h-1.387l-.037-.079a1.95 1.95 0 0 1-.153-.513c-.527.49-1.283.748-2.209.748l-.08-.001c-1.313-.023-2.686-.61-2.686-2.201 0-1.379.968-2.128 2.877-2.228l.106-.005c1.714-.095 1.949-.441 1.949-.77 0-.5-.534-.79-1.466-.8h-.046c-.548 0-1.478.137-1.612 1.04l-.005.037-.015.12h-1.416l.008-.144c.083-1.42 1.282-2.337 3.053-2.337zm-14.924 0c1.771 0 2.836.811 2.857 2.173V36.273c0 .3.078.75.173 1.008l.014.034.074.186h-1.387l-.037-.079a1.95 1.95 0 0 1-.152-.513c-.527.49-1.284.748-2.21.748l-.08-.001c-1.313-.023-2.685-.61-2.685-2.201 0-1.379.967-2.128 2.876-2.228l.107-.005c1.714-.095 1.948-.441 1.948-.77 0-.5-.533-.79-1.466-.8h-.045c-.548 0-1.479.137-1.613 1.04l-.005.037-.014.12H37.47l.008-.144c.084-1.42 1.282-2.337 3.054-2.337zm39.489 0c1.513 0 2.755.873 3.253 2.281l.016.046.06.18h-1.463l-.038-.074c-.38-.73-1.047-1.148-1.828-1.148-1.173 0-2.127 1.064-2.127 2.372 0 1.294.954 2.347 2.127 2.347.78 0 1.436-.403 1.807-1.108l.02-.039.038-.075h1.463l-.059.178c-.473 1.436-1.725 2.329-3.27 2.329-1.935 0-3.51-1.63-3.51-3.632 0-2.016 1.575-3.657 3.51-3.657zm-8.601-1.26v1.429h1.53v1.324h-1.53v3.06c0 .458.116.798.344 1.011.227.211.57.308 1.02.287l.047-.003.146-.009v1.279l-.121.014a3.486 3.486 0 0 1-.401.024c-.64 0-1.191-.191-1.61-.561-.51-.452-.785-1.137-.797-1.986v-3.116h-.916v-1.324h.916v-1.43h1.372zm-23.25 1.26c1.64 0 2.706 1.142 2.727 2.915V37.5h-1.372v-4.203c0-1.015-.579-1.645-1.511-1.645-.933 0-1.612.663-1.63 1.583V37.5H45v-6.964h1.346v.52c.482-.447 1.118-.69 1.826-.69zm13.165-2.807v9.94h-1.385v-9.94h1.385zm14.022 2.976V37.5h-1.385v-6.964h1.385zm-18.402 3.491c-.47.272-1.142.352-1.77.397l-.125.009c-1.476.091-1.665.594-1.665 1.02 0 .817 1.002.905 1.434.905 1 0 2.077-.403 2.125-1.531v-.799zm-14.925 0c-.47.272-1.142.352-1.77.397l-.125.009c-1.475.091-1.665.594-1.665 1.02 0 .817 1.003.905 1.434.905 1 0 2.077-.403 2.125-1.531l.001-.039v-.76zm33.327-5.817v1.583h-1.385v-1.583h1.385zm-36.39-13.774v3.756c.483-.499 1.24-.95 2.153-.95 1.962 0 3.499 1.607 3.499 3.658 0 2.044-1.537 3.644-3.499 3.644a2.994 2.994 0 0 1-2.158-.954l-.034-.036v.821h-1.345v-9.94h1.385zm32.597 0v9.94h-1.346v-.822c-.56.618-1.369.99-2.192.99-1.969 0-3.511-1.6-3.511-3.644 0-2.05 1.542-3.657 3.511-3.657.897 0 1.641.433 2.125.92l.028.029v-3.756h1.385zm-18.527 2.807c1.77 0 2.835.811 2.856 2.173V23.149c0 .3.079.75.174 1.008l.013.034.075.185h-1.387l-.037-.078a1.945 1.945 0 0 1-.153-.514c-.527.49-1.283.748-2.209.748h-.08c-1.313-.023-2.685-.61-2.685-2.201 0-1.379.967-2.128 2.876-2.228l.107-.005c1.714-.095 1.948-.441 1.948-.77 0-.5-.534-.79-1.466-.8h-.046c-.548 0-1.478.137-1.612 1.04l-.005.037-.014.12h-1.417l.008-.145c.083-1.42 1.282-2.336 3.054-2.336zm7.638 0c1.64 0 2.705 1.142 2.726 2.914v4.218h-1.37v-4.203c0-1.014-.58-1.644-1.513-1.644-.932 0-1.612.663-1.629 1.582v4.266h-1.385v-6.964h1.345v.52c.483-.447 1.119-.69 1.826-.69zm-11.529.008.048.006.12.014v1.355l-.144-.008c-.62-.034-1.16.132-1.52.47-.317.299-.484.712-.494 1.229v4.058h-1.385v-6.963h1.346v.522c.51-.498 1.265-.759 2.03-.683zm18.88 1.29c-1.192 0-2.126 1.042-2.126 2.372 0 1.294.954 2.347 2.126 2.347 1.167 0 2.153-1.075 2.153-2.347 0-1.308-.966-2.373-2.153-2.373zm-26.906 0c-1.187 0-2.152 1.064-2.152 2.372 0 1.272.985 2.347 2.152 2.347 1.166 0 2.114-1.053 2.114-2.347 0-1.33-.929-2.373-2.114-2.373zm13.415 2.362c-.486.28-1.187.357-1.833.401l-.062.004c-1.476.092-1.665.594-1.665 1.022 0 .816 1.003.904 1.434.904 1 0 2.077-.403 2.125-1.532l.001-.038v-.761z" fill="#FFF"/>
    <path d="m3.8 15.64-.034 9.985-.001.033V25.777C3.81 32.093 8.968 37.23 15.323 37.25a11.603 11.603 0 0 0 9.51-4.897l.064-.09v5.418A15.386 15.386 0 0 1 15.31 41C6.84 40.97-.028 34.083 0 25.646A15.2 15.2 0 0 1 3.73 15.72l.07-.08zm11.614-5.246c8.47.03 15.337 6.917 15.31 15.355-.001.073-.003.145-.006.218l-.008.216h.011l-.045 13.304h-3.743l.024-13.596c-.002-.052.001-.103.002-.155.021-6.37-5.163-11.57-11.558-11.592a11.578 11.578 0 0 0-3.693.591l-.105.036v-3.913a15.511 15.511 0 0 1 3.81-.464z" fill="#5881C1"/>
    <path d="m5.797 0 3.755.012-.004 18.22.519-.368c1.621-1.07 3.528-1.618 5.535-1.58a9.541 9.541 0 0 1 6.69 2.942 9.36 9.36 0 0 1 2.631 6.766 9.37 9.37 0 0 1-2.97 6.626 9.55 9.55 0 0 1-6.618 2.607l-.215-.002c-5.14-.13-9.241-4.273-9.32-9.32v-.154L5.796 0zm9.58 19.971a5.831 5.831 0 0 0-4.04 1.592 5.72 5.72 0 0 0-1.813 4.045c-.08 3.187 2.472 5.845 5.69 5.925a5.81 5.81 0 0 0 4.171-1.59 5.719 5.719 0 0 0 1.813-4.045 5.714 5.714 0 0 0-1.605-4.13 5.824 5.824 0 0 0-4.085-1.795c-.043-.002-.087-.002-.13-.002z" fill="#A3CF62"/>
  </symbol>

  <symbol id="user-avatar" viewBox="0 0 24 24"> 
      <path fill="#EDEEEF" d="M0 0h24v24H0z"/>
      <path d="M20.847 24H2.85v-4.126a1.808 1.808 0 0 1 .646-1.39 29.124 29.124 0 0 1 5.275-3.416.165.165 0 0 0 .093-.149v-1.724a4.168 4.168 0 0 1-.513-1.413c-.196-.017-.452-.294-.73-1.282-.357-1.273-.022-1.526.303-1.523-.172-.742-.61-3.327 1.297-4.501a1.038 1.038 0 0 1-.363-.787s2.18.248 3.226.03c1.047-.217 2.18.616 2.363 1.417 0 0 2.133 0 1.305 3.85.332-.014.695.217.33 1.523-.273.99-.545 1.267-.73 1.281a4.168 4.168 0 0 1-.513 1.414v1.724c0 .063.036.12.093.148a29.123 29.123 0 0 1 5.272 3.407c.41.343.647.854.646 1.391L20.847 24z" fill="#979CA9"/>
  </symbol>

  <symbol id="arrow-select-down" viewBox="0 0 10 6">
       <path d="M8.66.226A.787.787 0 0 1 9.765 1.35L5.547 5.5a.787.787 0 0 1-1.106 0L.234 1.347A.787.787 0 1 1 1.341.227l3.654 3.606L8.66.226z" />
  </symbol>

  <symbol id="done" viewBox="0 0 24 24">
    <path d="M12 0c6.627 0 12 5.373 12 12s-5.373 12-12 12S0 18.627 0 12 5.373 0 12 0zm0 2C6.477 2 2 6.477 2 12s4.477 10 10 10 10-4.477 10-10S17.523 2 12 2zm5.767 6.335a1 1 0 0 1 0 1.414l-7.06 7.06a1 1 0 0 1-1.414 0L5.305 12.82a1 1 0 1 1 1.414-1.414L10 14.687l6.352-6.352a1 1 0 0 1 1.415 0z" />
  </symbol>

  <symbol id="xls" viewBox="0 0 39 42">
    <path d="M29.541 1 38 9.576V37.19c0 2.104-1.682 3.81-3.758 3.81H10.758C8.682 41 7 39.294 7 37.19V4.81C7 2.706 8.682 1 10.758 1H29.54z" fill="#FFF"/>
    <path d="M29.995 0 39 9.005V38a4 4 0 0 1-4 4H10a4 4 0 0 1-4-4V4a4 4 0 0 1 4-4h19.995zM28 1.999 10 2a2 2 0 0 0-1.995 1.85L8 4v34a2 2 0 0 0 1.85 1.995L10 40h25a2 2 0 0 0 1.995-1.85L37 38V11h-5a4 4 0 0 1-4-4l-.001-5.001zm2 .834L30 7a2 2 0 0 0 1.85 1.995L32 9h4.167l-6.168-6.167z" fill="#5B85CE"/>
    <path d="M2 18h30a2 2 0 0 1 2 2v14a2 2 0 0 1-2 2H2a2 2 0 0 1-2-2V20a2 2 0 0 1 2-2z" fill="#5B85CE"/>
    <path d="M7.684 31c.131 0 .245-.066.34-.198l1.717-2.475 1.738 2.475c.095.132.209.198.34.198h1.177a.224.224 0 0 0 .231-.231.293.293 0 0 0-.033-.132l-2.464-3.564 2.3-3.41a.338.338 0 0 0 .043-.132.215.215 0 0 0-.071-.165.23.23 0 0 0-.16-.066h-1.088c-.147 0-.26.07-.341.209l-1.617 2.354-1.606-2.354c-.096-.14-.21-.209-.341-.209H6.693a.23.23 0 0 0-.16.066.215.215 0 0 0-.071.165c0 .044.014.088.043.132l2.3 3.41-2.453 3.564a.338.338 0 0 0-.044.132c0 .066.023.121.071.165a.23.23 0 0 0 .16.066h1.144zm11.637 0c.081 0 .147-.026.198-.077a.255.255 0 0 0 .078-.187v-.792a.255.255 0 0 0-.078-.187.268.268 0 0 0-.197-.077h-3.487v-6.116a.26.26 0 0 0-.072-.192.26.26 0 0 0-.193-.072h-1.034a.265.265 0 0 0-.186.072.25.25 0 0 0-.077.192v7.172c0 .073.025.136.077.187a.255.255 0 0 0 .187.077h4.784zm4.026.11c.624 0 1.172-.092 1.645-.275.473-.183.84-.45 1.1-.797.26-.349.39-.761.39-1.238 0-.433-.091-.788-.274-1.067-.184-.279-.468-.51-.853-.693-.385-.183-.904-.348-1.556-.495a9.992 9.992 0 0 1-1.09-.336c-.249-.099-.432-.214-.55-.346a.718.718 0 0 1-.175-.495c0-.293.115-.517.346-.671.231-.154.548-.231.952-.231.366 0 .674.079.924.236.249.158.392.354.428.589.06.132.17.198.33.198h1.046a.215.215 0 0 0 .164-.072.23.23 0 0 0 .067-.159c-.015-.315-.138-.633-.369-.951-.231-.32-.568-.585-1.012-.798-.444-.213-.97-.319-1.578-.319-.58 0-1.088.095-1.524.286-.436.19-.772.453-1.006.787A1.93 1.93 0 0 0 20.4 25.4c0 .63.201 1.115.605 1.452.403.337 1.037.609 1.902.814a14 14 0 0 1 1.194.357c.268.1.468.215.6.347a.672.672 0 0 1 .197.495c0 .3-.13.537-.39.71-.26.172-.647.258-1.16.258-.455 0-.813-.084-1.073-.253-.26-.169-.427-.378-.5-.627a.584.584 0 0 0-.143-.154.333.333 0 0 0-.199-.055h-1a.215.215 0 0 0-.166.072.23.23 0 0 0-.066.159c.015.381.143.733.386 1.056.241.323.597.583 1.067.781.469.198 1.034.297 1.694.297z" fill="#FFF" fill-rule="nonzero"/>
  </symbol>

  <symbol id="docx" viewBox="0 0 39 42">
    <path d="M29.541 1 38 9.576V37.19c0 2.104-1.682 3.81-3.758 3.81H10.758C8.682 41 7 39.294 7 37.19V4.81C7 2.706 8.682 1 10.758 1H29.54z" fill="#FFF"/>
    <path d="M29.995 0 39 9.005V38a4 4 0 0 1-4 4H10a4 4 0 0 1-4-4V4a4 4 0 0 1 4-4h19.995zM28 1.999 10 2a2 2 0 0 0-1.995 1.85L8 4v34a2 2 0 0 0 1.85 1.995L10 40h25a2 2 0 0 0 1.995-1.85L37 38V11h-5a4 4 0 0 1-4-4l-.001-5.001zm2 .834L30 7a2 2 0 0 0 1.85 1.995L32 9h4.167l-6.168-6.167z" fill="#979CA9"/>
    <path d="M2 18h31a2 2 0 0 1 2 2v14a2 2 0 0 1-2 2H2a2 2 0 0 1-2-2V20a2 2 0 0 1 2-2z" fill="#5B85CE"/>
    <path d="M6.346 31c1.093 0 1.901-.244 2.425-.732.525-.487.802-1.244.831-2.271.015-.425.022-.708.022-.847v-.071c-.002-.16-.01-.422-.022-.787-.044-1.995-1.148-2.992-3.311-2.992H3.607a.25.25 0 0 0-.193.077.28.28 0 0 0-.071.198v7.161c0 .073.026.136.077.187a.255.255 0 0 0 .187.077h2.739zm-.055-1.276H4.894v-5.148h1.342c.616 0 1.067.141 1.353.424.286.282.436.724.451 1.325.015.425.022.697.022.814v.049c-.002.132-.01.391-.022.776-.015.63-.158 1.082-.429 1.353-.271.271-.711.407-1.32.407zm7.755 1.386c.997 0 1.777-.253 2.338-.759.56-.506.856-1.258.885-2.255.015-.425.022-.737.022-.935 0-.205-.007-.52-.022-.946-.03-.975-.332-1.723-.907-2.244-.576-.52-1.348-.781-2.316-.781-.975 0-1.749.26-2.321.781-.572.52-.873 1.269-.902 2.244-.007.213-.011.528-.011.946v.197c.001.315.005.56.011.738.03.997.323 1.749.88 2.255.557.506 1.338.759 2.343.759zm0-1.276c-.491 0-.882-.148-1.171-.445-.29-.297-.442-.747-.457-1.348-.007-.22-.011-.517-.011-.891v-.219c.002-.278.005-.502.011-.672.015-.601.169-1.05.462-1.348.293-.297.682-.445 1.166-.445.477 0 .862.148 1.155.445.293.297.451.747.473 1.348.015.425.022.722.022.891 0 .154-.007.451-.022.891-.022.609-.176 1.06-.462 1.353-.286.293-.675.44-1.166.44zm7.645 1.276c.653 0 1.221-.112 1.705-.335.484-.224.86-.53 1.127-.919.268-.389.41-.825.424-1.309a.185.185 0 0 0-.06-.165.243.243 0 0 0-.171-.066h-1.067c-.088 0-.154.02-.198.06a.464.464 0 0 0-.11.215c-.11.455-.303.775-.578.962-.275.188-.632.281-1.072.281-1.049 0-1.595-.587-1.639-1.76a29.406 29.406 0 0 1-.011-.935v-.196c.001-.313.005-.552.011-.717.044-1.173.59-1.76 1.639-1.76.447 0 .807.093 1.078.28.271.188.462.508.572.963.03.103.066.174.11.215.044.04.11.06.198.06h1.067a.24.24 0 0 0 .16-.06.187.187 0 0 0 .071-.149v-.022a2.387 2.387 0 0 0-.424-1.309c-.267-.389-.643-.695-1.127-.918-.484-.224-1.052-.336-1.705-.336-1.005 0-1.786.262-2.343.787-.557.524-.854 1.255-.891 2.194a31.19 31.19 0 0 0-.011.99c0 .447.004.77.011.968.037.953.332 1.688.886 2.205.553.518 1.336.776 2.348.776zm5.093-.11c.132 0 .246-.066.341-.198l1.716-2.475 1.738 2.475c.095.132.209.198.341.198h1.177a.224.224 0 0 0 .231-.231.293.293 0 0 0-.033-.132l-2.464-3.564 2.299-3.41a.338.338 0 0 0 .044-.132.215.215 0 0 0-.072-.165.23.23 0 0 0-.159-.066h-1.089c-.147 0-.26.07-.341.209l-1.617 2.354-1.606-2.354c-.095-.14-.209-.209-.341-.209h-1.155a.23.23 0 0 0-.16.066.215.215 0 0 0-.071.165c0 .044.015.088.044.132l2.299 3.41-2.453 3.564a.338.338 0 0 0-.044.132c0 .066.024.121.072.165a.23.23 0 0 0 .159.066h1.144z" fill="#FFF" fill-rule="nonzero"/>
  </symbol>
  
  <symbol id="pdf" viewBox="0 0 39 42">
    <path d="M29.541 1 38 9.576V37.19c0 2.104-1.682 3.81-3.758 3.81H10.758C8.682 41 7 39.294 7 37.19V4.81C7 2.706 8.682 1 10.758 1H29.54z" fill="#FFF"/>
    <path d="M29.995 0 39 9.005V38a4 4 0 0 1-4 4H10a4 4 0 0 1-4-4V4a4 4 0 0 1 4-4h19.995zM28 1.999 10 2a2 2 0 0 0-1.995 1.85L8 4v34a2 2 0 0 0 1.85 1.995L10 40h25a2 2 0 0 0 1.995-1.85L37 38V11h-5a4 4 0 0 1-4-4l-.001-5.001zm2 .834L30 7a2 2 0 0 0 1.85 1.995L32 9h4.167l-6.168-6.167z" fill="#979CA9"/>
    <path d="M2 18h30a2 2 0 0 1 2 2v14a2 2 0 0 1-2 2H2a2 2 0 0 1-2-2V20a2 2 0 0 1 2-2z" fill="#CF6662"/>
    <path d="M7.87 31a.28.28 0 0 0 .199-.072.25.25 0 0 0 .076-.192v-2.574h1.617c.888 0 1.585-.203 2.09-.61.506-.407.76-1.007.76-1.799 0-.8-.254-1.408-.76-1.826-.505-.418-1.202-.627-2.09-.627H6.814a.25.25 0 0 0-.192.077.28.28 0 0 0-.071.198v7.161c0 .073.025.136.077.187a.255.255 0 0 0 .186.077H7.87zm1.837-4.07H8.123v-2.398h1.585c.44 0 .768.106.984.319.216.213.325.51.325.891 0 .389-.112.684-.336.886-.224.201-.548.302-.973.302zM16.814 31c1.092 0 1.9-.244 2.425-.732.524-.487.801-1.244.83-2.271.015-.425.023-.708.023-.847v-.071c-.003-.16-.01-.422-.022-.787-.044-1.995-1.148-2.992-3.311-2.992h-2.684a.25.25 0 0 0-.193.077.28.28 0 0 0-.072.198v7.161c0 .073.026.136.077.187a.255.255 0 0 0 .188.077h2.739zm-.055-1.276H15.36v-5.148h1.342c.617 0 1.067.141 1.354.424.286.282.436.724.45 1.325.015.425.022.697.022.814v.049a45.23 45.23 0 0 1-.021.776c-.015.63-.158 1.082-.43 1.353-.27.271-.71.407-1.32.407zM22.797 31c.081 0 .147-.026.198-.077a.255.255 0 0 0 .078-.187v-2.717h3.3c.08 0 .146-.026.197-.077a.255.255 0 0 0 .078-.187v-.792a.255.255 0 0 0-.078-.187.268.268 0 0 0-.198-.077h-3.3v-2.068h3.52c.081 0 .147-.026.199-.077a.255.255 0 0 0 .076-.187v-.792a.268.268 0 0 0-.076-.198.268.268 0 0 0-.198-.077h-4.785a.25.25 0 0 0-.193.077.28.28 0 0 0-.071.198v7.161c0 .073.025.136.076.187a.255.255 0 0 0 .188.077h.99z" fill="#FFF" fill-rule="nonzero"/>
  </symbol>

</svg>
