<svg width="90" height="41" viewBox="0 0 90 41" xmlns="http://www.w3.org/2000/svg">
    <g fill-rule="nonzero" fill="none">
        <path d="m63.61 30.537 1.865 5.066 1.828-5.066h1.484L65.696 38.7c-.45 1.189-1.139 1.723-2.264 1.723-.117 0-.239-.006-.366-.018l-.076-.007-.122-.013v-1.282l.146.011.075.005c.725.039 1.04-.173 1.304-.868l.349-.924-2.63-6.79h1.498zm23.214-.169c1.612 0 2.71.831 2.878 2.172l.004.04.017.151h-1.387l-.024-.106c-.135-.618-.678-.972-1.488-.972-.782 0-1.395.351-1.395.8l.001.036c.018.321.28.48 1.537.68l.278.044c1.217.197 2.606.512 2.606 2.138 0 1.387-1.164 2.319-2.897 2.319-1.703 0-2.93-.926-3.138-2.362l-.006-.044-.02-.153h1.394l.02.111c.13.699.816 1.15 1.75 1.15 1.003 0 1.535-.466 1.55-.934l.001-.041c0-.306-.033-.647-1.612-.873l-.1-.013c-1.697-.243-2.748-.665-2.748-2.02 0-1.022.87-2.123 2.779-2.123zm-31.367 0c1.772 0 2.836.811 2.857 2.173V36.273c0 .3.079.75.174 1.008l.013.034.075.186h-1.387l-.037-.079a1.95 1.95 0 0 1-.153-.513c-.527.49-1.283.748-2.209.748l-.08-.001c-1.313-.023-2.686-.61-2.686-2.201 0-1.379.968-2.128 2.877-2.228l.106-.005c1.714-.095 1.949-.441 1.949-.77 0-.5-.534-.79-1.466-.8h-.046c-.548 0-1.478.137-1.612 1.04l-.005.037-.015.12h-1.416l.008-.144c.083-1.42 1.282-2.337 3.053-2.337zm-14.924 0c1.771 0 2.836.811 2.857 2.173V36.273c0 .3.078.75.173 1.008l.014.034.074.186h-1.387l-.037-.079a1.95 1.95 0 0 1-.152-.513c-.527.49-1.284.748-2.21.748l-.08-.001c-1.313-.023-2.685-.61-2.685-2.201 0-1.379.967-2.128 2.876-2.228l.107-.005c1.714-.095 1.948-.441 1.948-.77 0-.5-.533-.79-1.466-.8h-.045c-.548 0-1.479.137-1.613 1.04l-.005.037-.014.12H37.47l.008-.144c.084-1.42 1.282-2.337 3.054-2.337zm39.489 0c1.513 0 2.755.873 3.253 2.281l.016.046.06.18h-1.463l-.038-.074c-.38-.73-1.047-1.148-1.828-1.148-1.173 0-2.127 1.064-2.127 2.372 0 1.294.954 2.347 2.127 2.347.78 0 1.436-.403 1.807-1.108l.02-.039.038-.075h1.463l-.059.178c-.473 1.436-1.725 2.329-3.27 2.329-1.935 0-3.51-1.63-3.51-3.632 0-2.016 1.575-3.657 3.51-3.657zm-8.601-1.26v1.429h1.53v1.324h-1.53v3.06c0 .458.116.798.344 1.011.227.211.57.308 1.02.287l.047-.003.146-.009v1.279l-.121.014a3.486 3.486 0 0 1-.401.024c-.64 0-1.191-.191-1.61-.561-.51-.452-.785-1.137-.797-1.986v-3.116h-.916v-1.324h.916v-1.43h1.372zm-23.25 1.26c1.64 0 2.706 1.142 2.727 2.915V37.5h-1.372v-4.203c0-1.015-.579-1.645-1.511-1.645-.933 0-1.612.663-1.63 1.583V37.5H45v-6.964h1.346v.52c.482-.447 1.118-.69 1.826-.69zm13.165-2.807v9.94h-1.385v-9.94h1.385zm14.022 2.976V37.5h-1.385v-6.964h1.385zm-18.402 3.491c-.47.272-1.142.352-1.77.397l-.125.009c-1.476.091-1.665.594-1.665 1.02 0 .817 1.002.905 1.434.905 1 0 2.077-.403 2.125-1.531v-.799zm-14.925 0c-.47.272-1.142.352-1.77.397l-.125.009c-1.475.091-1.665.594-1.665 1.02 0 .817 1.003.905 1.434.905 1 0 2.077-.403 2.125-1.531l.001-.039v-.76zm33.327-5.817v1.583h-1.385v-1.583h1.385zm-36.39-13.774v3.756c.483-.499 1.24-.95 2.153-.95 1.962 0 3.499 1.607 3.499 3.658 0 2.044-1.537 3.644-3.499 3.644a2.994 2.994 0 0 1-2.158-.954l-.034-.036v.821h-1.345v-9.94h1.385zm32.597 0v9.94h-1.346v-.822c-.56.618-1.369.99-2.192.99-1.969 0-3.511-1.6-3.511-3.644 0-2.05 1.542-3.657 3.511-3.657.897 0 1.641.433 2.125.92l.028.029v-3.756h1.385zm-18.527 2.807c1.77 0 2.835.811 2.856 2.173V23.149c0 .3.079.75.174 1.008l.013.034.075.185h-1.387l-.037-.078a1.945 1.945 0 0 1-.153-.514c-.527.49-1.283.748-2.209.748h-.08c-1.313-.023-2.685-.61-2.685-2.201 0-1.379.967-2.128 2.876-2.228l.107-.005c1.714-.095 1.948-.441 1.948-.77 0-.5-.534-.79-1.466-.8h-.046c-.548 0-1.478.137-1.612 1.04l-.005.037-.014.12h-1.417l.008-.145c.083-1.42 1.282-2.336 3.054-2.336zm7.638 0c1.64 0 2.705 1.142 2.726 2.914v4.218h-1.37v-4.203c0-1.014-.58-1.644-1.513-1.644-.932 0-1.612.663-1.629 1.582v4.266h-1.385v-6.964h1.345v.52c.483-.447 1.119-.69 1.826-.69zm-11.529.008.048.006.12.014v1.355l-.144-.008c-.62-.034-1.16.132-1.52.47-.317.299-.484.712-.494 1.229v4.058h-1.385v-6.963h1.346v.522c.51-.498 1.265-.759 2.03-.683zm18.88 1.29c-1.192 0-2.126 1.042-2.126 2.372 0 1.294.954 2.347 2.126 2.347 1.167 0 2.153-1.075 2.153-2.347 0-1.308-.966-2.373-2.153-2.373zm-26.906 0c-1.187 0-2.152 1.064-2.152 2.372 0 1.272.985 2.347 2.152 2.347 1.166 0 2.114-1.053 2.114-2.347 0-1.33-.929-2.373-2.114-2.373zm13.415 2.362c-.486.28-1.187.357-1.833.401l-.062.004c-1.476.092-1.665.594-1.665 1.022 0 .816 1.003.904 1.434.904 1 0 2.077-.403 2.125-1.532l.001-.038v-.761z" fill="#FFF"/>
        <path d="m3.8 15.64-.034 9.985-.001.033V25.777C3.81 32.093 8.968 37.23 15.323 37.25a11.603 11.603 0 0 0 9.51-4.897l.064-.09v5.418A15.386 15.386 0 0 1 15.31 41C6.84 40.97-.028 34.083 0 25.646A15.2 15.2 0 0 1 3.73 15.72l.07-.08zm11.614-5.246c8.47.03 15.337 6.917 15.31 15.355-.001.073-.003.145-.006.218l-.008.216h.011l-.045 13.304h-3.743l.024-13.596c-.002-.052.001-.103.002-.155.021-6.37-5.163-11.57-11.558-11.592a11.578 11.578 0 0 0-3.693.591l-.105.036v-3.913a15.511 15.511 0 0 1 3.81-.464z" fill="#5881C1"/>
        <path d="m5.797 0 3.755.012-.004 18.22.519-.368c1.621-1.07 3.528-1.618 5.535-1.58a9.541 9.541 0 0 1 6.69 2.942 9.36 9.36 0 0 1 2.631 6.766 9.37 9.37 0 0 1-2.97 6.626 9.55 9.55 0 0 1-6.618 2.607l-.215-.002c-5.14-.13-9.241-4.273-9.32-9.32v-.154L5.796 0zm9.58 19.971a5.831 5.831 0 0 0-4.04 1.592 5.72 5.72 0 0 0-1.813 4.045c-.08 3.187 2.472 5.845 5.69 5.925a5.81 5.81 0 0 0 4.171-1.59 5.719 5.719 0 0 0 1.813-4.045 5.714 5.714 0 0 0-1.605-4.13 5.824 5.824 0 0 0-4.085-1.795c-.043-.002-.087-.002-.13-.002z" fill="#A3CF62"/>
    </g>
</svg>
