<svg width="39" height="42" viewBox="0 0 39 42" xmlns="http://www.w3.org/2000/svg">
    <g fill="none" fill-rule="evenodd">
        <path d="M29.541 1 38 9.576V37.19c0 2.104-1.682 3.81-3.758 3.81H10.758C8.682 41 7 39.294 7 37.19V4.81C7 2.706 8.682 1 10.758 1H29.54z" fill="#FFF"/>
        <path d="M29.995 0 39 9.005V38a4 4 0 0 1-4 4H10a4 4 0 0 1-4-4V4a4 4 0 0 1 4-4h19.995zM28 1.999 10 2a2 2 0 0 0-1.995 1.85L8 4v34a2 2 0 0 0 1.85 1.995L10 40h25a2 2 0 0 0 1.995-1.85L37 38V11h-5a4 4 0 0 1-4-4l-.001-5.001zm2 .834L30 7a2 2 0 0 0 1.85 1.995L32 9h4.167l-6.168-6.167z" fill="#979CA9"/>
        <path d="M2 18h31a2 2 0 0 1 2 2v14a2 2 0 0 1-2 2H2a2 2 0 0 1-2-2V20a2 2 0 0 1 2-2z" fill="#5B85CE"/>
        <path d="M6.346 31c1.093 0 1.901-.244 2.425-.732.525-.487.802-1.244.831-2.271.015-.425.022-.708.022-.847v-.071c-.002-.16-.01-.422-.022-.787-.044-1.995-1.148-2.992-3.311-2.992H3.607a.25.25 0 0 0-.193.077.28.28 0 0 0-.071.198v7.161c0 .073.026.136.077.187a.255.255 0 0 0 .187.077h2.739zm-.055-1.276H4.894v-5.148h1.342c.616 0 1.067.141 1.353.424.286.282.436.724.451 1.325.015.425.022.697.022.814v.049c-.002.132-.01.391-.022.776-.015.63-.158 1.082-.429 1.353-.271.271-.711.407-1.32.407zm7.755 1.386c.997 0 1.777-.253 2.338-.759.56-.506.856-1.258.885-2.255.015-.425.022-.737.022-.935 0-.205-.007-.52-.022-.946-.03-.975-.332-1.723-.907-2.244-.576-.52-1.348-.781-2.316-.781-.975 0-1.749.26-2.321.781-.572.52-.873 1.269-.902 2.244-.007.213-.011.528-.011.946v.197c.001.315.005.56.011.738.03.997.323 1.749.88 2.255.557.506 1.338.759 2.343.759zm0-1.276c-.491 0-.882-.148-1.171-.445-.29-.297-.442-.747-.457-1.348-.007-.22-.011-.517-.011-.891v-.219c.002-.278.005-.502.011-.672.015-.601.169-1.05.462-1.348.293-.297.682-.445 1.166-.445.477 0 .862.148 1.155.445.293.297.451.747.473 1.348.015.425.022.722.022.891 0 .154-.007.451-.022.891-.022.609-.176 1.06-.462 1.353-.286.293-.675.44-1.166.44zm7.645 1.276c.653 0 1.221-.112 1.705-.335.484-.224.86-.53 1.127-.919.268-.389.41-.825.424-1.309a.185.185 0 0 0-.06-.165.243.243 0 0 0-.171-.066h-1.067c-.088 0-.154.02-.198.06a.464.464 0 0 0-.11.215c-.11.455-.303.775-.578.962-.275.188-.632.281-1.072.281-1.049 0-1.595-.587-1.639-1.76a29.406 29.406 0 0 1-.011-.935v-.196c.001-.313.005-.552.011-.717.044-1.173.59-1.76 1.639-1.76.447 0 .807.093 1.078.28.271.188.462.508.572.963.03.103.066.174.11.215.044.04.11.06.198.06h1.067a.24.24 0 0 0 .16-.06.187.187 0 0 0 .071-.149v-.022a2.387 2.387 0 0 0-.424-1.309c-.267-.389-.643-.695-1.127-.918-.484-.224-1.052-.336-1.705-.336-1.005 0-1.786.262-2.343.787-.557.524-.854 1.255-.891 2.194a31.19 31.19 0 0 0-.011.99c0 .447.004.77.011.968.037.953.332 1.688.886 2.205.553.518 1.336.776 2.348.776zm5.093-.11c.132 0 .246-.066.341-.198l1.716-2.475 1.738 2.475c.095.132.209.198.341.198h1.177a.224.224 0 0 0 .231-.231.293.293 0 0 0-.033-.132l-2.464-3.564 2.299-3.41a.338.338 0 0 0 .044-.132.215.215 0 0 0-.072-.165.23.23 0 0 0-.159-.066h-1.089c-.147 0-.26.07-.341.209l-1.617 2.354-1.606-2.354c-.095-.14-.209-.209-.341-.209h-1.155a.23.23 0 0 0-.16.066.215.215 0 0 0-.071.165c0 .044.015.088.044.132l2.299 3.41-2.453 3.564a.338.338 0 0 0-.044.132c0 .066.024.121.072.165a.23.23 0 0 0 .159.066h1.144z" fill="#FFF" fill-rule="nonzero"/>
    </g>
</svg>
