<svg width="39" height="42" viewBox="0 0 39 42" xmlns="http://www.w3.org/2000/svg">
    <g fill="none" fill-rule="evenodd">
        <path d="M29.541 1 38 9.576V37.19c0 2.104-1.682 3.81-3.758 3.81H10.758C8.682 41 7 39.294 7 37.19V4.81C7 2.706 8.682 1 10.758 1H29.54z" fill="#FFF"/>
        <path d="M29.995 0 39 9.005V38a4 4 0 0 1-4 4H10a4 4 0 0 1-4-4V4a4 4 0 0 1 4-4h19.995zM28 1.999 10 2a2 2 0 0 0-1.995 1.85L8 4v34a2 2 0 0 0 1.85 1.995L10 40h25a2 2 0 0 0 1.995-1.85L37 38V11h-5a4 4 0 0 1-4-4l-.001-5.001zm2 .834L30 7a2 2 0 0 0 1.85 1.995L32 9h4.167l-6.168-6.167z" fill="#979CA9"/>
        <path d="M2 18h30a2 2 0 0 1 2 2v14a2 2 0 0 1-2 2H2a2 2 0 0 1-2-2V20a2 2 0 0 1 2-2z" fill="#CF6662"/>
        <path d="M7.87 31a.28.28 0 0 0 .199-.072.25.25 0 0 0 .076-.192v-2.574h1.617c.888 0 1.585-.203 2.09-.61.506-.407.76-1.007.76-1.799 0-.8-.254-1.408-.76-1.826-.505-.418-1.202-.627-2.09-.627H6.814a.25.25 0 0 0-.192.077.28.28 0 0 0-.071.198v7.161c0 .073.025.136.077.187a.255.255 0 0 0 .186.077H7.87zm1.837-4.07H8.123v-2.398h1.585c.44 0 .768.106.984.319.216.213.325.51.325.891 0 .389-.112.684-.336.886-.224.201-.548.302-.973.302zM16.814 31c1.092 0 1.9-.244 2.425-.732.524-.487.801-1.244.83-2.271.015-.425.023-.708.023-.847v-.071c-.003-.16-.01-.422-.022-.787-.044-1.995-1.148-2.992-3.311-2.992h-2.684a.25.25 0 0 0-.193.077.28.28 0 0 0-.072.198v7.161c0 .073.026.136.077.187a.255.255 0 0 0 .188.077h2.739zm-.055-1.276H15.36v-5.148h1.342c.617 0 1.067.141 1.354.424.286.282.436.724.45 1.325.015.425.022.697.022.814v.049a45.23 45.23 0 0 1-.021.776c-.015.63-.158 1.082-.43 1.353-.27.271-.71.407-1.32.407zM22.797 31c.081 0 .147-.026.198-.077a.255.255 0 0 0 .078-.187v-2.717h3.3c.08 0 .146-.026.197-.077a.255.255 0 0 0 .078-.187v-.792a.255.255 0 0 0-.078-.187.268.268 0 0 0-.198-.077h-3.3v-2.068h3.52c.081 0 .147-.026.199-.077a.255.255 0 0 0 .076-.187v-.792a.268.268 0 0 0-.076-.198.268.268 0 0 0-.198-.077h-4.785a.25.25 0 0 0-.193.077.28.28 0 0 0-.071.198v7.161c0 .073.025.136.076.187a.255.255 0 0 0 .188.077h.99z" fill="#FFF" fill-rule="nonzero"/>
    </g>
</svg>
