<svg width="24" height="24" viewBox="0 0 24 24" xmlns="http://www.w3.org/2000/svg">
    <g fill="none" fill-rule="evenodd">
        <path fill="#EDEEEF" d="M0 0h24v24H0z"/>
        <path d="M20.847 24H2.85v-4.126a1.808 1.808 0 0 1 .646-1.39 29.124 29.124 0 0 1 5.275-3.416.165.165 0 0 0 .093-.149v-1.724a4.168 4.168 0 0 1-.513-1.413c-.196-.017-.452-.294-.73-1.282-.357-1.273-.022-1.526.303-1.523-.172-.742-.61-3.327 1.297-4.501a1.038 1.038 0 0 1-.363-.787s2.18.248 3.226.03c1.047-.217 2.18.616 2.363 1.417 0 0 2.133 0 1.305 3.85.332-.014.695.217.33 1.523-.273.99-.545 1.267-.73 1.281a4.168 4.168 0 0 1-.513 1.414v1.724c0 .063.036.12.093.148a29.123 29.123 0 0 1 5.272 3.407c.41.343.647.854.646 1.391L20.847 24z" fill="#979CA9"/>
    </g>
</svg>
