<svg width="39" height="42" viewBox="0 0 39 42" xmlns="http://www.w3.org/2000/svg">
    <g fill="none" fill-rule="evenodd">
        <path d="M29.541 1 38 9.576V37.19c0 2.104-1.682 3.81-3.758 3.81H10.758C8.682 41 7 39.294 7 37.19V4.81C7 2.706 8.682 1 10.758 1H29.54z" fill="#FFF"/>
        <path d="M29.995 0 39 9.005V38a4 4 0 0 1-4 4H10a4 4 0 0 1-4-4V4a4 4 0 0 1 4-4h19.995zM28 1.999 10 2a2 2 0 0 0-1.995 1.85L8 4v34a2 2 0 0 0 1.85 1.995L10 40h25a2 2 0 0 0 1.995-1.85L37 38V11h-5a4 4 0 0 1-4-4l-.001-5.001zm2 .834L30 7a2 2 0 0 0 1.85 1.995L32 9h4.167l-6.168-6.167z" fill="#5B85CE"/>
        <path d="M2 18h30a2 2 0 0 1 2 2v14a2 2 0 0 1-2 2H2a2 2 0 0 1-2-2V20a2 2 0 0 1 2-2z" fill="#5B85CE"/>
        <path d="M7.684 31c.131 0 .245-.066.34-.198l1.717-2.475 1.738 2.475c.095.132.209.198.34.198h1.177a.224.224 0 0 0 .231-.231.293.293 0 0 0-.033-.132l-2.464-3.564 2.3-3.41a.338.338 0 0 0 .043-.132.215.215 0 0 0-.071-.165.23.23 0 0 0-.16-.066h-1.088c-.147 0-.26.07-.341.209l-1.617 2.354-1.606-2.354c-.096-.14-.21-.209-.341-.209H6.693a.23.23 0 0 0-.16.066.215.215 0 0 0-.071.165c0 .044.014.088.043.132l2.3 3.41-2.453 3.564a.338.338 0 0 0-.044.132c0 .066.023.121.071.165a.23.23 0 0 0 .16.066h1.144zm11.637 0c.081 0 .147-.026.198-.077a.255.255 0 0 0 .078-.187v-.792a.255.255 0 0 0-.078-.187.268.268 0 0 0-.197-.077h-3.487v-6.116a.26.26 0 0 0-.072-.192.26.26 0 0 0-.193-.072h-1.034a.265.265 0 0 0-.186.072.25.25 0 0 0-.077.192v7.172c0 .073.025.136.077.187a.255.255 0 0 0 .187.077h4.784zm4.026.11c.624 0 1.172-.092 1.645-.275.473-.183.84-.45 1.1-.797.26-.349.39-.761.39-1.238 0-.433-.091-.788-.274-1.067-.184-.279-.468-.51-.853-.693-.385-.183-.904-.348-1.556-.495a9.992 9.992 0 0 1-1.09-.336c-.249-.099-.432-.214-.55-.346a.718.718 0 0 1-.175-.495c0-.293.115-.517.346-.671.231-.154.548-.231.952-.231.366 0 .674.079.924.236.249.158.392.354.428.589.06.132.17.198.33.198h1.046a.215.215 0 0 0 .164-.072.23.23 0 0 0 .067-.159c-.015-.315-.138-.633-.369-.951-.231-.32-.568-.585-1.012-.798-.444-.213-.97-.319-1.578-.319-.58 0-1.088.095-1.524.286-.436.19-.772.453-1.006.787A1.93 1.93 0 0 0 20.4 25.4c0 .63.201 1.115.605 1.452.403.337 1.037.609 1.902.814a14 14 0 0 1 1.194.357c.268.1.468.215.6.347a.672.672 0 0 1 .197.495c0 .3-.13.537-.39.71-.26.172-.647.258-1.16.258-.455 0-.813-.084-1.073-.253-.26-.169-.427-.378-.5-.627a.584.584 0 0 0-.143-.154.333.333 0 0 0-.199-.055h-1a.215.215 0 0 0-.166.072.23.23 0 0 0-.066.159c.015.381.143.733.386 1.056.241.323.597.583 1.067.781.469.198 1.034.297 1.694.297z" fill="#FFF" fill-rule="nonzero"/>
    </g>
</svg>
